<?xml version="1.0" standalone="no"?><!DOCTYPE svg PUBLIC "-//W3C//DTD SVG 1.1//EN" "http://www.w3.org/Graphics/SVG/1.1/DTD/svg11.dtd"><svg t="1573876003941" class="icon" viewBox="0 0 1024 1024" version="1.1" xmlns="http://www.w3.org/2000/svg" p-id="3626" xmlns:xlink="http://www.w3.org/1999/xlink" width="200" height="200"><defs><style type="text/css"></style></defs><path d="M0 0h1024v1024H0z" fill="#34C9E3" p-id="3627"></path><path d="M467.73 595.39h92.31v56.9h-92.31z" fill="#FFFFFF" p-id="3628"></path><path d="M768 307.2H648.53v-17.07a17.07 17.07 0 0 0-34.13 0v17.07H409.6v-17.07a17.07 17.07 0 0 0-34.13 0v17.07H256a17.07 17.07 0 0 0-17.07 17.07v426.66A17.07 17.07 0 0 0 256 768h512a17.07 17.07 0 0 0 17.07-17.07V324.27A17.07 17.07 0 0 0 768 307.2zM579.49 685.66H560v-14.33h-92.27v14.53h-19.44V504.72h131.2z m171.44-267.53a8.53 8.53 0 0 1-8.53 8.53H281.6a8.53 8.53 0 0 1-8.53-8.53v-68.26a8.53 8.53 0 0 1 8.53-8.53h93.87v17.06a17.07 17.07 0 1 0 34.13 0v-17.07h204.8v17.07a17.07 17.07 0 1 0 34.13 0v-17.07h93.87a8.53 8.53 0 0 1 8.53 8.53z" fill="#FFFFFF" p-id="3629"></path><path d="M467.73 523.55h92.31v52.81h-92.31z" fill="#FFFFFF" p-id="3630"></path></svg>