<?xml version="1.0" standalone="no"?><!DOCTYPE svg PUBLIC "-//W3C//DTD SVG 1.1//EN" "http://www.w3.org/Graphics/SVG/1.1/DTD/svg11.dtd"><svg t="1573876372628" class="icon" viewBox="0 0 1024 1024" version="1.1" xmlns="http://www.w3.org/2000/svg" p-id="5774" xmlns:xlink="http://www.w3.org/1999/xlink" width="200" height="200"><defs><style type="text/css"></style></defs><path d="M0 0h1024v1024H0z" fill="#569CE0" p-id="5775"></path><path d="M475.92 523.55h82.9v30.7h-82.9zM475.92 572.47h82.9v32.14h-82.9z" fill="#FFFFFF" p-id="5776"></path><path d="M768 307.2H648.53v-17.07a17.07 17.07 0 0 0-34.13 0v17.07H409.6v-17.07a17.07 17.07 0 0 0-34.13 0v17.07H256a17.07 17.07 0 0 0-17.07 17.07v426.66A17.07 17.07 0 0 0 256 768h512a17.07 17.07 0 0 0 17.07-17.07V324.27A17.07 17.07 0 0 0 768 307.2z m-189.53 358c0 13.1-6.76 19.65-19.86 19.65h-26.2l-5.32-19c9 0.41 17.4 0.82 25.18 0.82 4.3 0 6.55-2.87 6.55-8.19v-35.86H474.9c-2.66 26.2-10.44 47.9-23.33 65.29l-14.95-13.71c12.9-18 19.45-40.94 19.86-68.77V504.92h122z m172.46-247.07a8.53 8.53 0 0 1-8.53 8.53H281.6a8.53 8.53 0 0 1-8.53-8.53v-68.26a8.53 8.53 0 0 1 8.53-8.53h93.87v17.06a17.07 17.07 0 1 0 34.13 0v-17.07h204.8v17.07a17.07 17.07 0 1 0 34.13 0v-17.07h93.87a8.53 8.53 0 0 1 8.53 8.53z" fill="#FFFFFF" p-id="5777"></path></svg>