<?xml version="1.0" standalone="no"?><!DOCTYPE svg PUBLIC "-//W3C//DTD SVG 1.1//EN" "http://www.w3.org/Graphics/SVG/1.1/DTD/svg11.dtd"><svg t="1573876653595" class="icon" viewBox="0 0 1024 1024" version="1.1" xmlns="http://www.w3.org/2000/svg" p-id="7167" xmlns:xlink="http://www.w3.org/1999/xlink" width="200" height="200"><defs><style type="text/css"></style></defs><path d="M0 0h1024v1024H0z" fill="#FDA32B" p-id="7168"></path><path d="M685.75 318.91V260a21.22 21.22 0 0 0-21.33-21.1H357.86a21.22 21.22 0 0 0-21.33 21.1v58.89H256c0 72.71 31.27 138 81 184.09 5 90.68 81.27 163.38 174.12 163.38S680.3 593.68 685.27 503c49.75-46.05 81-111.38 81-184.09z m-94.67 101.18l-28.22 27.2a10.49 10.49 0 0 0-3.06 9.34l6.65 38.37c1.5 8.62-7.65 15.18-15.47 11.11L516.1 488a10.7 10.7 0 0 0-9.92 0l-34.88 18.15c-7.82 4.07-17-2.49-15.47-11.11l6.66-38.41a10.49 10.49 0 0 0-3.06-9.34l-28.22-27.2a10.52 10.52 0 0 1 5.91-18l39-5.61a10.61 10.61 0 0 0 8-5.76l17.45-35a10.71 10.71 0 0 1 19.11 0l17.44 35a10.66 10.66 0 0 0 8 5.76l39 5.61a10.52 10.52 0 0 1 5.96 18zM597.33 785.07h-68.26v-85.34a17.07 17.07 0 0 0-34.13 0v85.33h-68.27a17.07 17.07 0 1 0 0 34.13h170.66a17.07 17.07 0 1 0 0-34.13z" fill="#FFFFFF" p-id="7169"></path></svg>