<?xml version="1.0" standalone="no"?><!DOCTYPE svg PUBLIC "-//W3C//DTD SVG 1.1//EN" "http://www.w3.org/Graphics/SVG/1.1/DTD/svg11.dtd"><svg t="1573876514099" class="icon" viewBox="0 0 1024 1024" version="1.1" xmlns="http://www.w3.org/2000/svg" p-id="6546" xmlns:xlink="http://www.w3.org/1999/xlink" width="200" height="200"><defs><style type="text/css"></style></defs><path d="M914.3296 0.2048H109.6704C49.4592 0.2048 0.2048 49.4592 0.2048 109.6704v804.6592c0 60.2112 49.2544 109.4656 109.4656 109.4656h804.6592c60.2112 0 109.4656-49.2544 109.4656-109.4656V109.6704C1023.7952 49.4592 974.5408 0.2048 914.3296 0.2048zM750.6944 605.9008l-13.312 13.312-155.648-155.648-39.2192 39.2192 155.648 155.648-41.6768 41.6768-155.648-155.648-39.0144 39.0144 155.648 155.648-41.6768 41.6768-155.648-155.648-39.1168 39.1168 155.648 155.648-16.0768 16.0768c-21.1968 21.1968-55.5008 21.1968-76.6976 0L121.856 513.9456c-21.1968-21.1968-21.1968-55.5008 0-76.6976l230.0928-230.0928c21.1968-21.1968 55.5008-21.1968 76.6976 0l322.048 322.048c21.0944 21.1968 21.0944 55.6032 0 76.6976z m154.7264-154.7264l-71.7824 71.7824-264.4992-264.4992 71.7824-71.7824c23.7568-23.7568 62.2592-23.7568 86.016 0l178.4832 178.4832c23.7568 23.7568 23.7568 62.2592 0 86.016z" fill="#d4237a" p-id="6547"></path></svg>