<?xml version="1.0" standalone="no"?><!DOCTYPE svg PUBLIC "-//W3C//DTD SVG 1.1//EN" "http://www.w3.org/Graphics/SVG/1.1/DTD/svg11.dtd"><svg t="1573876205979" class="icon" viewBox="0 0 1024 1024" version="1.1" xmlns="http://www.w3.org/2000/svg" p-id="4373" xmlns:xlink="http://www.w3.org/1999/xlink" width="200" height="200"><defs><style type="text/css"></style></defs><path d="M914.432 0H109.568C49.2544 0 0 49.2544 0 109.568v804.864c0 60.2112 49.2544 109.568 109.568 109.568h804.864c60.2112 0 109.568-49.2544 109.568-109.568V109.568c0-60.3136-49.2544-109.568-109.568-109.568zM366.6944 376.9344V323.584h120.5248v-56.2176h64.2048V323.584h127.0784v53.3504H551.424v60.6208h143.1552v54.784H350.6176v-54.784h136.4992v-60.6208H366.6944zM443.392 778.5472h-61.3376V544.8704h279.6544v192.7168H443.392v40.96z m354.0992-31.4368c0 38.7072-9.5232 57.6512-34.304 67.8912-24.7808 10.9568-64.2048 11.6736-128.512 11.6736-2.1504-16.7936-12.3904-46.6944-21.1968-62.7712 41.5744 1.4336 86.1184 0.7168 98.6112 0.7168 13.1072-0.7168 17.5104-5.12 17.5104-17.5104V255.6928H322.8672v178.176c0 118.272-12.3904 287.6416-91.9552 397.9264-11.6736-13.1072-40.1408-35.7376-55.5008-43.8272 73.0112-101.4784 80.2816-246.0672 80.2816-354.0992v-241.664h541.7984v554.9056z" fill="#00CE4A" p-id="4374"></path><path d="M443.392 597.4016h155.5456v86.9376H443.392z" fill="#00CE4A" p-id="4375"></path></svg>