<?xml version="1.0" standalone="no"?><!DOCTYPE svg PUBLIC "-//W3C//DTD SVG 1.1//EN" "http://www.w3.org/Graphics/SVG/1.1/DTD/svg11.dtd"><svg t="1567646436620" class="icon" viewBox="0 0 1024 1024" version="1.1" xmlns="http://www.w3.org/2000/svg" p-id="919" xmlns:xlink="http://www.w3.org/1999/xlink" width="200" height="200"><defs><style type="text/css"></style></defs><path d="M150.588235 0h722.82353c83.169882 0 150.588235 67.418353 150.588235 150.588235v722.82353c0 83.169882-67.418353 150.588235-150.588235 150.588235H150.588235C67.418353 1024 0 956.581647 0 873.411765V150.588235C0 67.418353 67.418353 0 150.588235 0z m66.95153 738.740706h114.748235V550.249412h-114.748235v188.491294z m303.22447-4.096h114.748236V435.516235h-114.748236v299.128471z m-151.612235 4.096h114.748235V324.879059h-114.748235v413.861647z m300.423529-1.972706h112.850824V210.823529h-112.850824v525.944471zM180.705882 811.760941h601.720471v-37.526588H180.705882v37.541647z" fill="#F15A4A" p-id="920"></path></svg>