<?xml version="1.0" standalone="no"?><!DOCTYPE svg PUBLIC "-//W3C//DTD SVG 1.1//EN" "http://www.w3.org/Graphics/SVG/1.1/DTD/svg11.dtd"><svg t="1565772854669" class="icon" viewBox="0 0 1024 1024" version="1.1" xmlns="http://www.w3.org/2000/svg" p-id="5569" xmlns:xlink="http://www.w3.org/1999/xlink" width="200" height="200"><defs><style type="text/css"></style></defs><path d="M0 67.9936C0 30.446933 30.651733 0 67.9936 0h888.0128C993.553067 0 1024 30.651733 1024 67.9936v888.0128c0 37.546667-30.651733 67.9936-67.9936 67.9936H67.9936C30.446933 1024 0 993.348267 0 956.0064V67.9936z m267.502933 602.146133v76.868267c0 21.333333 17.2032 38.365867 38.468267 38.365867h403.0464c21.4016 0 38.468267-17.169067 38.468267-38.365867v-76.868267c0-21.333333-17.2032-38.365867-38.468267-38.365866H305.9712c-21.4016 0-38.468267 17.169067-38.468267 38.365866z m133.700267-76.9024l215.825067 0.068267-14.165334-13.141333c-41.745067-43.793067-16.384-73.966933 10.171734-113.7664l13.550933-19.285334c10.513067-18.193067 16.418133-39.150933 16.213333-61.44-0.580267-67.242667-59.733333-123.904-131.072-125.6448l-3.549866-0.034133c-74.3424 0-134.621867 56.763733-134.621867 126.7712 0 29.115733 10.513067 55.876267 27.989333 77.277867a25.053867 25.053867 0 0 1 1.297067 1.706666c27.818667 40.5504 69.290667 70.8608 5.802667 121.4464l-7.441067 6.0416z" fill="#F5A623" p-id="5570"></path></svg>