<?xml version="1.0" standalone="no"?><!DOCTYPE svg PUBLIC "-//W3C//DTD SVG 1.1//EN" "http://www.w3.org/Graphics/SVG/1.1/DTD/svg11.dtd"><svg t="1563346945233" class="icon" viewBox="0 0 1024 1024" version="1.1" xmlns="http://www.w3.org/2000/svg" p-id="3774" xmlns:xlink="http://www.w3.org/1999/xlink" width="200" height="200"><defs><style type="text/css"></style></defs><path d="M896 0H128C57.6 0 0 57.6 0 128v768c0 70.4 57.6 128 128 128h768c70.4 0 128-57.6 128-128V128c0-70.4-57.6-128-128-128z m-74.666667 723.2L624 490.666667 821.333333 299.733333 512 540.8 212.266667 307.2l-9.6-7.466667L400 490.666667 210.133333 714.666667l-7.466666 9.6L433.066667 522.666667l78.933333 75.733333 78.933333-75.733333L821.333333 724.266667H202.666667V299.733333h618.666666v423.466667z" p-id="3775" fill="#13227a"></path></svg>