<?xml version="1.0" standalone="no"?><!DOCTYPE svg PUBLIC "-//W3C//DTD SVG 1.1//EN" "http://www.w3.org/Graphics/SVG/1.1/DTD/svg11.dtd"><svg t="1565672520113" class="icon" viewBox="0 0 1024 1024" version="1.1" xmlns="http://www.w3.org/2000/svg" p-id="3839" xmlns:xlink="http://www.w3.org/1999/xlink" width="200" height="200"><defs><style type="text/css"></style></defs><path d="M283.306667 351.573333c27.306667 0 46.08-27.306667 46.08-56.32v-64.853333c0-30.72-18.773333-56.32-46.08-56.32s-46.08 27.306667-46.08 56.32v64.853333c1.706667 30.72 20.48 56.32 46.08 56.32z m605.866666-59.733333c-3.413333-52.906667-49.493333-49.493333-49.493333-49.493333h-27.306667v92.16s0 37.546667-37.546666 37.546666h-80.213334c-37.546667 0-37.546667-37.546667-37.546666-37.546666v-92.16H363.52v92.16s0 37.546667-37.546667 37.546666h-80.213333c-37.546667 0-37.546667-37.546667-37.546667-37.546666v-92.16h-27.306666s-49.493333-3.413333-49.493334 49.493333v506.88c0 52.906667 52.906667 52.906667 52.906667 52.906667h655.36s52.906667 0 52.906667-52.906667c-3.413333-23.893333-3.413333-503.466667-3.413334-506.88 0 3.413333 0 0 0 0zM508.586667 744.106667c0 37.546667-76.8 49.493333-148.48 49.493333s-148.48-6.826667-148.48-49.493333v-11.946667c0-30.72 52.906667-56.32 98.986666-76.8 3.413333 0 18.773333-11.946667 11.946667-30.72-22.186667-22.186667-37.546667-61.44-37.546667-95.573333 0-56.32 37.546667-83.626667 80.213334-83.626667s80.213333 30.72 80.213333 83.626667c0 34.133333-15.36 71.68-37.546667 95.573333-6.826667 27.306667 3.413333 30.72 6.826667 34.133333 46.08 15.36 98.986667 46.08 98.986667 76.8v6.826667l-5.12 1.706667z m262.826666-18.773334h-167.253333c-18.773333 0-34.133333-15.36-34.133333-34.133333s15.36-34.133333 34.133333-34.133333h167.253333c18.773333 0 34.133333 15.36 34.133334 34.133333s-15.36 34.133333-34.133334 34.133333z m0-141.653333h-167.253333c-18.773333 0-34.133333-15.36-34.133333-34.133333s15.36-37.546667 34.133333-37.546667h167.253333c18.773333 0 34.133333 15.36 34.133334 34.133333 0 22.186667-15.36 37.546667-34.133334 37.546667zM733.866667 351.573333c27.306667 0 46.08-27.306667 46.08-56.32v-64.853333c0-30.72-22.186667-56.32-49.493334-56.32-27.306667 0-46.08 27.306667-46.08 56.32v64.853333c3.413333 30.72 25.6 56.32 49.493334 56.32z" fill="#FFFFFF" p-id="3840"></path><path d="M921.6 1024H102.4c-56.32 0-102.4-46.08-102.4-102.4V102.4c0-56.32 46.08-102.4 102.4-102.4h819.2c56.32 0 102.4 46.08 102.4 102.4v819.2c0 56.32-46.08 102.4-102.4 102.4z" fill="#4F76A9" p-id="3841"></path><path d="M692.906667 209.92c0-20.48-17.066667-35.84-35.84-35.84H233.813333c-20.48 0-35.84 17.066667-35.84 35.84V699.733333c0 20.48 11.946667 27.306667 35.84 35.84l35.84 11.946667 1.706667-505.173333c0-18.773333 15.36-34.133333 34.133333-34.133334l387.413334 1.706667z" fill="#FFFFFF" p-id="3842"></path><path d="M776.533333 240.64H353.28c-13.653333 0-27.306667 5.12-35.84 15.36-10.24 10.24-15.36 22.186667-15.36 35.84v501.76c0 34.133333 52.906667 51.2 75.093333 51.2h5.12l42.666667-34.133333c17.066667-15.36 42.666667-15.36 61.44-1.706667l40.96 29.013333c22.186667 15.36 51.2 15.36 71.68-1.706666l35.84-27.306667c17.066667-13.653333 42.666667-15.36 59.733333-1.706667l54.613334 37.546667h5.12c25.6 0 73.386667-18.773333 73.386666-51.2V291.84c0-29.013333-22.186667-51.2-51.2-51.2zM489.813333 457.386667c-8.533333 0-13.653333-6.826667-13.653333-15.36s6.826667-13.653333 13.653333-15.36h35.84l-1.706666-1.706667-39.253334-63.146667c-3.413333-6.826667-3.413333-15.36 0-22.186666s10.24-11.946667 18.773334-11.946667 15.36 3.413333 18.773333 10.24l39.253333 63.146667c1.706667 1.706667 1.706667 3.413333 1.706667 6.826666 0-1.706667 1.706667-3.413333 1.706667-6.826666l39.253333-63.146667c6.826667-10.24 20.48-13.653333 30.72-6.826667 10.24 6.826667 13.653333 20.48 6.826667 30.72l-39.253334 63.146667-1.706666 1.706667h35.84c8.533333 0 13.653333 6.826667 13.653333 15.36s-6.826667 13.653333-13.653333 15.36h-52.906667v22.186666h52.906667c8.533333 0 13.653333 6.826667 13.653333 15.36s-6.826667 13.653333-13.653333 15.36h-52.906667v15.36c0 11.946667-10.24 22.186667-22.186667 22.186667s-22.186667-10.24-22.186666-22.186667v-15.36h-49.493334c-8.533333 0-13.653333-6.826667-13.653333-15.36s6.826667-13.653333 13.653333-15.36h52.906667v-22.186666h-52.906667z m187.733334 244.053333H452.266667c-8.533333 0-17.066667-8.533333-17.066667-17.066667s6.826667-17.066667 17.066667-17.066666h225.28c8.533333 0 17.066667 8.533333 17.066666 17.066666s-6.826667 15.36-17.066666 17.066667z m0-71.68H452.266667c-8.533333 0-17.066667-8.533333-17.066667-17.066667s6.826667-17.066667 17.066667-17.066666h225.28c8.533333 0 17.066667 8.533333 17.066666 17.066666s-6.826667 17.066667-17.066666 17.066667z" fill="#FFFFFF" p-id="3843"></path></svg>