<?xml version="1.0" standalone="no"?><!DOCTYPE svg PUBLIC "-//W3C//DTD SVG 1.1//EN" "http://www.w3.org/Graphics/SVG/1.1/DTD/svg11.dtd"><svg t="1568193302670" class="icon" viewBox="0 0 1024 1024" version="1.1" xmlns="http://www.w3.org/2000/svg" p-id="8127" xmlns:xlink="http://www.w3.org/1999/xlink" width="200" height="200"><defs><style type="text/css"></style></defs><path d="M0 0m214.38 0l595.24 0q214.38 0 214.38 214.38l0 595.24q0 214.38-214.38 214.38l-595.24 0q-214.38 0-214.38-214.38l0-595.24q0-214.38 214.38-214.38Z" fill="#00CE8C" p-id="8128"></path><path d="M578.78 535.07l-56.07 56.08-89.72-89.71 52.34-52.29-26.17-26.16-52.33 52.33-52.33-52.33-63.58 63.49a172 172 0 0 0-14.95 228l-86 89.71 26.17 26.16 86-86c29.9 26.16 67.28 37.38 104.66 37.38 44.86 0 89.71-18.69 123.35-52.33l63.55-63.55-48.6-48.59 56.07-56.07z m-74.76 164.47c-26.17 26.17-59.81 41.12-93.45 41.12s-67.29-11.21-89.71-37.38l-3.74-3.74c-48.59-48.59-48.59-130.82 3.74-183.16l33.64-33.64L537.66 665.9z m328.9-482.19l-26.13-26.2-82.23 78.5c-29.91-26.17-67.29-37.38-104.67-37.38-44.85 0-89.71 18.69-123.35 52.33l-63.55 59.81 243 243 59.81-59.81a172 172 0 0 0 14.95-228z m-127 280.34l-30 29.91L492.8 344.44l29.91-29.9c26.16-26.17 59.8-41.12 93.45-41.12s67.28 11.21 89.71 37.38l3.73 3.74c52.32 48.61 48.6 130.82-3.68 183.15z m0 0" fill="#FFFFFF" p-id="8129"></path></svg>